<!--?xml version="1.0" encoding="utf-8"?-->
<!-- Generator: Adobe Illustrator 18.1.1, SVG Export Plug-In . SVG Version: 6.00 Build 0)  -->

<svg version="1.1" id="_x32_" xmlns="http://www.w3.org/2000/svg" xmlns:xlink="http://www.w3.org/1999/xlink" x="0px" y="0px" viewBox="0 0 512 512" style="width: 64px; height: 64px; opacity: 1;" xml:space="preserve">
<style type="text/css">
	.st0{fill:#4B4B4B;}
</style>
<g>
	<path class="st0" d="M479.02,151.647c-21.259-21.676-49.631-34.056-79.906-34.867l-10.22-0.265l-2.16-10.003
		c-5.716-26.462-20.48-50.539-41.602-67.815c-21.709-17.703-48.01-27.08-76.093-27.096c-28.373,0.016-54.914,9.57-76.751,27.634
		c-21.252,17.614-35.911,42.116-41.29,68.979l-2.496,12.428l-12.557-2.184c-7.177-1.236-13.704-1.846-19.966-1.846
		c-30.925,0.016-60.044,12.074-82.017,33.992C12.075,172.537,0.016,201.647,0,232.605c0.016,30.925,12.075,60.052,33.992,82.017
		c21.933,21.885,51.052,33.952,81.993,33.968h41.563c12.869,0,23.306-10.429,23.306-23.306v-74.744
		c0-25.747,20.866-46.612,46.605-46.612h57.081c25.739,0,46.605,20.866,46.605,46.612v74.744c0,12.877,10.437,23.306,23.306,23.306
		h41.579c30.933-0.016,60.044-12.083,82.009-34c21.886-21.933,33.945-51.06,33.96-82.002
		C511.984,202.234,500.287,173.501,479.02,151.647z" style="fill: rgb(0, 0, 0);"></path>
	<path class="st0" d="M251.656,236.812c1.466,0,2.91,0.088,4.344,0.224c1.433-0.136,2.878-0.224,4.343-0.224H251.656z" style="fill: rgb(0, 0, 0);"></path>
	<path class="st0" d="M298.262,283.425c0-24.278-18.562-44.204-42.261-46.388c-23.7,2.184-42.262,22.11-42.262,46.388v102.522
		h-54.336L256,500.399l96.597-114.452h-54.336V283.425z" style="fill: rgb(0, 0, 0);"></path>
</g>
</svg>
